<svg xmlns="http://www.w3.org/2000/svg" viewBox="0 0 480 480">
  <path fill="#f5c276" d="M126.74 156.823H34.193l14.833 22.765c3.958 5.937 9.895 8.897 16.828 8.897h92.547l-14.849-22.765c-3.942-5.92-9.878-8.897-16.812-8.897Zm319.054 0h-92.547c-6.934 0-12.871 2.977-16.828 8.913l-14.834 22.749h92.547c6.918 0 12.855-2.976 16.812-8.913l14.85-22.749ZM239.977 342.788l62.31-111.924a54.349 54.349 0 0 1 46.701-26.548h65.144l-14.849 22.749c-3.958 5.936-9.895 8.912-16.813 8.912h-31.661a28.73 28.73 0 0 0-25.646 15.768l-84.964 153.938-85.375-153.938a28.73 28.73 0 0 0-25.646-15.768H97.516c-6.934 0-12.87-2.96-16.828-8.897l-14.834-22.764h65.144a54.348 54.348 0 0 1 46.701 26.548l62.278 111.924Z"/>
  <path fill="#f5c276" d="m240.072 247.945 59.223-106.113c9.562-18.997 31.06-32.501 52.337-32.501h125.823l-14.849 22.749c-3.958 5.936-9.894 8.913-16.812 8.913h-94.985a28.73 28.73 0 0 0-25.646 15.767l-85.091 154.509-85.248-154.509a28.73 28.73 0 0 0-25.646-15.767H34.193c-6.934 0-12.871-2.961-16.828-8.897L2.531 109.331h125.823c21.277 0 42.759 13.504 52.337 32.501l59.381 106.113Z"/>
  <path fill="#f5c276" d="m240.785 153.467-39.577-79.154-.238.412v66.062l39.815 76.003 39.434-75.291V74.598l-39.434 78.869Z"/>
</svg>
