<svg width="300" height="520" viewBox="0 0 300 520" fill="none" xmlns="http://www.w3.org/2000/svg" role="img" aria-labelledby="descId">
  <title id="titleId"></title>
  <desc id="descId"></desc>
  <style>
    .header {
      font: 600 18px 'Segoe UI', Ubuntu, Sans-Serif;
      fill: #bd93f9f5;
      animation: fadeInAnimation 0.8s ease-in-out forwards;
    }
    @supports(-moz-appearance: auto) {
      /* Selector detects Firefox */
      .header { font-size: 15.5px; }
    }

    @keyframes slideInAnimation {
      from {
        width: 0;
      }

      to {
        width: calc(100%-100px);
      }
    }

    @keyframes growWidthAnimation {
      from {
        width: 0;
      }

      to {
        width: 100%;
      }
    }

    .bold {
      font-weight: 700
    }

    .text {
      font: 400 11px "Segoe UI", Ubuntu, Sans-Serif;
      fill: #f8f8f2;
    }

    .stagger {
      opacity: 0;
      animation: fadeInAnimation 0.3s ease-in-out forwards;
    }

    #rect-mask rect {
      animation: slideInAnimation 1s ease-in-out forwards;
    }

    .progress {
      animation: growWidthAnimation 0.6s ease-in-out forwards;
    }

    /* Animations */
    @keyframes scaleInAnimation {
      from {
        transform: translate(-5px, 5px) scale(0);
      }

      to {
        transform: translate(-5px, 5px) scale(1);
      }
    }

    @keyframes fadeInAnimation {
      from {
        opacity: 0;
      }

      to {
        opacity: 1;
      }
    }
  </style>

  <rect x="0.5" y="0.5" rx="4.5" height="518" stroke="#e4e2e2" width="298" fill="#282a36" stroke-opacity="1" />

  <g transform="translate(25, 30)">
    <g transform="translate(0, 0)">
      <text x="0" y="0" class="header">value-enhancer</text>
    </g>
  </g>

  <g transform="translate(0, 50)">
    <svg x="25">
      <g transform="translate(0, 0)">
  <g class="stagger" style="animation-delay: 100ms">
    <text x="2" y="15" class="text">*</text>
    <text x="215" y="34" class="text">2.1 kB</text>

    <svg width="200" x="0" y="25">
      <rect rx="5" ry="5" x="0" y="0" width="200" height="8" fill="#bd93f934"></rect>
      <svg width="100%">
        <rect height="8" fill="#bd93f9" rx="5" ry="5" x="0" y="0" class="progress" style="animation-delay: 400ms" />
      </svg>
    </svg>
  </g>
</g>

<g transform="translate(0, 40)">
  <g class="stagger" style="animation-delay: 250ms">
    <text x="2" y="15" class="text">{ readonlyVal, val } (core)</text>
    <text x="215" y="34" class="text">1.2 kB</text>

    <svg width="200" x="0" y="25">
      <rect rx="5" ry="5" x="0" y="0" width="200" height="8" fill="#bd93f934"></rect>
      <svg width="56.945765937202665%">
        <rect height="8" fill="#bd93f9" rx="5" ry="5" x="0" y="0" class="progress" style="animation-delay: 550ms" />
      </svg>
    </svg>
  </g>
</g>

<g transform="translate(0, 80)">
  <g class="stagger" style="animation-delay: 400ms">
    <text x="2" y="15" class="text">{ from }</text>
    <text x="215" y="34" class="text">113 B</text>

    <svg width="200" x="0" y="25">
      <rect rx="5" ry="5" x="0" y="0" width="200" height="8" fill="#bd93f934"></rect>
      <svg width="5.3758325404376786%">
        <rect height="8" fill="#bd93f9" rx="5" ry="5" x="0" y="0" class="progress" style="animation-delay: 700ms" />
      </svg>
    </svg>
  </g>
</g>

<g transform="translate(0, 120)">
  <g class="stagger" style="animation-delay: 550ms">
    <text x="2" y="15" class="text">{ derive }</text>
    <text x="215" y="34" class="text">170 B</text>

    <svg width="200" x="0" y="25">
      <rect rx="5" ry="5" x="0" y="0" width="200" height="8" fill="#bd93f934"></rect>
      <svg width="8.087535680304473%">
        <rect height="8" fill="#bd93f9" rx="5" ry="5" x="0" y="0" class="progress" style="animation-delay: 850ms" />
      </svg>
    </svg>
  </g>
</g>

<g transform="translate(0, 160)">
  <g class="stagger" style="animation-delay: 700ms">
    <text x="2" y="15" class="text">{ combine }</text>
    <text x="215" y="34" class="text">319 B</text>

    <svg width="200" x="0" y="25">
      <rect rx="5" ry="5" x="0" y="0" width="200" height="8" fill="#bd93f934"></rect>
      <svg width="15.176022835394862%">
        <rect height="8" fill="#bd93f9" rx="5" ry="5" x="0" y="0" class="progress" style="animation-delay: 1000ms" />
      </svg>
    </svg>
  </g>
</g>

<g transform="translate(0, 200)">
  <g class="stagger" style="animation-delay: 850ms">
    <text x="2" y="15" class="text">{ compute }</text>
    <text x="215" y="34" class="text">386 B</text>

    <svg width="200" x="0" y="25">
      <rect rx="5" ry="5" x="0" y="0" width="200" height="8" fill="#bd93f934"></rect>
      <svg width="18.363463368220742%">
        <rect height="8" fill="#bd93f9" rx="5" ry="5" x="0" y="0" class="progress" style="animation-delay: 1150ms" />
      </svg>
    </svg>
  </g>
</g>

<g transform="translate(0, 240)">
  <g class="stagger" style="animation-delay: 1000ms">
    <text x="2" y="15" class="text">{ flattenFrom }</text>
    <text x="215" y="34" class="text">347 B</text>

    <svg width="200" x="0" y="25">
      <rect rx="5" ry="5" x="0" y="0" width="200" height="8" fill="#bd93f934"></rect>
      <svg width="16.508087535680303%">
        <rect height="8" fill="#bd93f9" rx="5" ry="5" x="0" y="0" class="progress" style="animation-delay: 1300ms" />
      </svg>
    </svg>
  </g>
</g>

<g transform="translate(0, 280)">
  <g class="stagger" style="animation-delay: 1150ms">
    <text x="2" y="15" class="text">{ flatten }</text>
    <text x="215" y="34" class="text">125 B</text>

    <svg width="200" x="0" y="25">
      <rect rx="5" ry="5" x="0" y="0" width="200" height="8" fill="#bd93f934"></rect>
      <svg width="5.946717411988582%">
        <rect height="8" fill="#bd93f9" rx="5" ry="5" x="0" y="0" class="progress" style="animation-delay: 1450ms" />
      </svg>
    </svg>
  </g>
</g>

<g transform="translate(0, 320)">
  <g class="stagger" style="animation-delay: 1300ms">
    <text x="2" y="15" class="text">{ reactiveMap }</text>
    <text x="215" y="34" class="text">640 B</text>

    <svg width="200" x="0" y="25">
      <rect rx="5" ry="5" x="0" y="0" width="200" height="8" fill="#bd93f934"></rect>
      <svg width="30.44719314938154%">
        <rect height="8" fill="#bd93f9" rx="5" ry="5" x="0" y="0" class="progress" style="animation-delay: 1600ms" />
      </svg>
    </svg>
  </g>
</g>

<g transform="translate(0, 360)">
  <g class="stagger" style="animation-delay: 1450ms">
    <text x="2" y="15" class="text">{ reactiveSet }</text>
    <text x="215" y="34" class="text">489 B</text>

    <svg width="200" x="0" y="25">
      <rect rx="5" ry="5" x="0" y="0" width="200" height="8" fill="#bd93f934"></rect>
      <svg width="23.263558515699334%">
        <rect height="8" fill="#bd93f9" rx="5" ry="5" x="0" y="0" class="progress" style="animation-delay: 1750ms" />
      </svg>
    </svg>
  </g>
</g>

<g transform="translate(0, 400)">
  <g class="stagger" style="animation-delay: 1600ms">
    <text x="2" y="15" class="text">{ reactiveList }</text>
    <text x="215" y="34" class="text">673 B</text>

    <svg width="200" x="0" y="25">
      <rect rx="5" ry="5" x="0" y="0" width="200" height="8" fill="#bd93f934"></rect>
      <svg width="32.01712654614653%">
        <rect height="8" fill="#bd93f9" rx="5" ry="5" x="0" y="0" class="progress" style="animation-delay: 1900ms" />
      </svg>
    </svg>
  </g>
</g>

    </svg>
  </g>
</svg>
